<svg width="70" height="64" viewBox="0 0 70 64" fill="none" xmlns="http://www.w3.org/2000/svg">
<path d="M2.96536 3.8855C16.1216 15.1719 27.7505 28.1971 41.5346 38.7457C46.3426 42.4251 51.2248 46.0295 56.1704 49.522C58.6921 51.3028 61.3781 52.8027 63.8642 54.6345" stroke="black" stroke-width="2" stroke-linecap="round"/>
<path d="M51.2333 2.30664C48.6717 4.93399 46.5693 7.91778 44.4167 10.8776C40.5747 16.1603 36.521 21.2964 32.4499 26.403C24.5887 36.2641 16.4986 45.8943 8.3786 55.5367" stroke="black" stroke-width="2" stroke-linecap="round"/>
<path d="M51.6844 1.63C49.5658 2.78012 48.187 5.06416 46.8226 6.96805C45.3467 9.02731 43.9236 11.0625 42.6123 13.2334C40.7791 16.2681 38.711 19.147 36.8732 22.1802C34.575 25.9736 32.3439 29.7996 29.831 33.4578C25.6521 39.5415 20.9263 45.2241 16.3731 51.0257C14.7739 53.0635 12.2613 55.4803 11.5363 58.0178" stroke="black" stroke-width="2" stroke-linecap="round"/>
<path d="M1.83762 4.11096C5.54187 8.92 10.1174 13.1054 14.5938 17.1804C21.7447 23.6902 28.7017 30.4042 35.9209 36.841C46.2433 46.0446 57.568 53.8031 68.6008 62.0776" stroke="black" stroke-width="2" stroke-linecap="round"/>
<path d="M53.0378 1.85547C51.8882 2.70834 50.9043 3.73934 50.1557 4.96306C49.0828 6.71681 47.6761 8.20589 46.4968 9.8876C42.2276 15.9751 37.6976 21.8716 33.515 28.0194C28.8041 34.9439 23.4182 41.3032 18.1776 47.8178C14.2874 52.6537 9.92801 57.2392 7.0253 62.7543" stroke="black" stroke-width="2" stroke-linecap="round"/>
</svg>
