<svg width="84" height="90" viewBox="0 0 84 90" fill="none" xmlns="http://www.w3.org/2000/svg">
<path d="M2.39059 3.93152C5.3346 8.94724 9.52517 13.4918 13.1563 18.0307C19.4263 25.8681 26.2875 33.3388 33.3781 40.4295C47.1468 54.1981 61.2506 67.6275 76.1689 80.1589" stroke="black" stroke-width="2" stroke-linecap="round"/>
<path d="M1.4722 1.78857C2.34934 4.57947 4.9028 7.4125 6.67647 9.64601C12.5085 16.99 18.1434 24.4983 24.1261 31.7217C37.4894 47.8562 54.1161 60.7285 67.9033 76.4852" stroke="black" stroke-width="2" stroke-linecap="round"/>
<path d="M1.16608 3.01306C1.73972 3.14054 2.24794 4.06836 2.62872 4.4757C4.05554 6.00207 5.17587 7.70455 6.72751 9.15275C14.9549 16.8317 22.7701 24.4807 29.9767 33.1672C38.8943 43.9162 48.4592 54.1388 57.4267 64.8521C63.944 72.6383 70.4414 80.45 77.0873 88.1183" stroke="black" stroke-width="2" stroke-linecap="round"/>
<path d="M82.2915 6.68677C81.1425 7.1549 80.4131 7.98368 79.5363 8.8297C77.801 10.5042 75.8518 11.9223 74.128 13.6258C64.4297 23.21 55.0821 33.083 45.7596 43.0317C31.6576 58.0808 16.666 72.3123 2.08447 86.8938" stroke="black" stroke-width="2" stroke-linecap="round"/>
<path d="M81.9854 6.68677C78.816 9.0383 76.2881 12.3379 73.7028 15.2925C66.1186 23.9601 58.0753 32.199 50.3686 40.7527C43.0205 48.9083 35.2455 56.9516 27.1874 64.41C20.5871 70.5191 14.4335 76.6359 9.43167 84.1386" stroke="black" stroke-width="2" stroke-linecap="round"/>
<path d="M74.6382 11.891C72.1661 14.363 70.7137 17.5495 68.4645 20.1736C61.3102 28.5203 54.0345 36.7224 46.0997 44.3412C36.1501 53.8945 25.3984 62.9033 16.3877 73.3729C12.5625 77.8174 7.96143 82.7328 6.06421 88.4245" stroke="black" stroke-width="2" stroke-linecap="round"/>
</svg>
