<svg width="12" height="14" viewBox="0 0 12 14" fill="none" xmlns="http://www.w3.org/2000/svg">
<path d="M2.29783 3.16003C2.29783 2.34563 2.09149 1.72123 2.90993 1.3237C3.86895 0.857892 5.76714 0.983759 6.78662 1.15367C7.76061 1.316 10.2708 2.29921 10.7313 3.26204C11.337 4.52858 10.0838 6.54555 9.68846 7.71683C8.83278 10.2522 6.40602 14.6216 3.61273 11.6048C2.41322 10.3094 1.54714 9.20556 1.18696 7.45612C1.00102 6.55297 0.777543 5.08838 1.48168 4.38424" stroke="#545454" stroke-width="2" stroke-linecap="round"/>
<path d="M5.35834 4.79238C4.98178 4.79238 3.7789 4.98793 3.56736 4.58834C3.07887 3.66565 4.31332 3.56816 4.90493 3.56816C5.90916 3.56816 6.58012 5.36965 6.74125 6.17529C6.94623 7.20019 6.89681 7.88849 5.97045 8.35167C5.38133 8.64623 4.68073 8.66906 4.0321 8.66906C3.47719 8.66906 3.39395 6.9468 3.32931 6.52669C3.20486 5.71775 3.73325 4.79238 4.64421 4.79238C5.845 4.79238 6.53988 5.36077 7.19466 6.37933C8.17208 7.89975 6.65425 11.3215 4.74623 11.3215C3.60676 11.3215 3.93009 9.54366 3.93009 8.71441C3.93009 6.93719 4.41722 5.11858 6.06113 4.10092C6.59515 3.77034 8.23892 3.13552 8.72493 3.78353C9.48241 4.7935 8.79331 6.19548 8.21484 7.12746C6.40918 10.0366 5.0526 6.42653 4.74623 4.58834" stroke="#545454" stroke-width="2" stroke-linecap="round"/>
</svg>
